<svg width="16" height="14" viewBox="0 0 16 14" fill="none" xmlns="http://www.w3.org/2000/svg">
<path d="M0.496094 7.00391C0.496094 7.27734 0.613281 7.55078 0.808594 7.74609L5.93359 12.8555C6.14453 13.0664 6.38672 13.168 6.63672 13.168C7.21484 13.168 7.62109 12.7617 7.62109 12.2148C7.62109 11.918 7.49609 11.6836 7.31641 11.4961L5.55078 9.72266L3.56641 7.90234L5.32422 8.00391H14.4805C15.0898 8.00391 15.5039 7.59766 15.5039 7.00391C15.5039 6.41016 15.0898 6.00391 14.4805 6.00391H5.32422L3.56641 6.09766L5.55078 4.28516L7.31641 2.50391C7.50391 2.31641 7.62109 2.08203 7.62109 1.78516C7.62109 1.24609 7.21484 0.832031 6.63672 0.832031C6.38672 0.832031 6.14453 0.933594 5.91797 1.15234L0.808594 6.26172C0.613281 6.44922 0.496094 6.73047 0.496094 7.00391Z" fill="#2E3138"/>
</svg>
