<svg width="127" height="24" viewBox="0 0 127 24" fill="none" xmlns="http://www.w3.org/2000/svg">
<g clip-path="url(#clip0)">
<path d="M0.486696 4.83374H4.18742C4.45372 4.83374 4.67411 5.05856 4.67411 5.33023V9.48011C4.67411 9.57379 4.74758 9.64873 4.83941 9.64873C4.89451 9.64873 4.94042 9.62063 4.96797 9.58316L7.93406 5.31149C8.14526 5.01173 8.47585 4.83374 8.83398 4.83374H12.9939C13.3061 4.83374 13.4805 5.19908 13.2877 5.45201L9.04519 11.0539C8.99928 11.1101 8.99928 11.1944 9.04519 11.2506L13.4071 17.3677C13.5907 17.6206 13.4071 17.9766 13.104 17.9766H8.88908C8.51258 17.9766 8.16363 17.7799 7.96161 17.4614L4.96797 12.7775C4.94042 12.7307 4.88532 12.7026 4.83022 12.7026C4.73839 12.7026 4.66493 12.7775 4.66493 12.8712V17.4801C4.66493 17.7518 4.44454 17.9766 4.17824 17.9766H0.486696C0.22039 17.9766 0 17.7518 0 17.4801V5.33023C0 5.0492 0.22039 4.83374 0.486696 4.83374Z" fill="#2E3138"/>
<path d="M15.0325 14.5105C15.0325 11.9625 17.0527 10.6135 21.2769 10.0234L23.5267 9.74233V9.15216C23.5267 8.18729 22.9022 7.52219 21.8278 7.52219C20.9463 7.52219 20.2943 8.00931 20.1198 8.8524C20.0647 9.11469 19.8535 9.30205 19.5872 9.30205H16.1252C15.8038 9.30205 15.5467 9.01165 15.5926 8.68378C15.9232 6.10767 18.3016 4.48706 21.8738 4.48706C25.6939 4.48706 28.2192 6.36996 28.2192 9.33015V17.4238C28.2192 17.7236 27.9804 17.9671 27.6866 17.9671H24.0593C23.7654 17.9671 23.5267 17.7236 23.5267 17.4238V16.4121H23.2787C22.5533 17.6393 21.0014 18.2763 19.3301 18.2763C16.7772 18.2857 15.0325 16.9086 15.0325 14.5105ZM23.5267 13.0585V12.2716L21.4513 12.5807C20.0739 12.7587 19.5321 13.2927 19.5321 14.0608C19.5321 14.8758 20.129 15.4098 21.1575 15.4098C22.5533 15.4098 23.5267 14.4168 23.5267 13.0585Z" fill="#2E3138"/>
<path d="M45.5474 11.4098C45.5474 15.5878 43.2241 18.3138 39.854 18.3138C38.201 18.3138 36.9522 17.6487 36.1073 16.4496H35.8594V23.288C35.8594 23.5972 35.6115 23.8407 35.3176 23.8407H31.7363C31.4332 23.8407 31.1945 23.5878 31.1945 23.288V5.38639C31.1945 5.07726 31.4424 4.8337 31.7363 4.8337H35.3176C35.6206 4.8337 35.8594 5.08662 35.8594 5.38639V6.36063H36.1073C36.9522 5.16157 38.1551 4.49646 39.8264 4.49646C43.2517 4.49646 45.5474 7.17562 45.5474 11.4098ZM35.6574 11.4098C35.6574 13.0679 36.7593 14.3138 38.2561 14.3138C39.7805 14.3138 40.8549 13.0679 40.8549 11.4098C40.8549 9.75173 39.7805 8.50583 38.2561 8.50583C36.7593 8.49646 35.6574 9.75173 35.6574 11.4098Z" fill="#2E3138"/>
<path d="M51.3602 8.65575H47.9349C47.5768 8.65575 47.2921 8.36536 47.2921 8.00002V5.48948C47.2921 5.12414 47.5768 4.83374 47.9349 4.83374H59.4687C59.8268 4.83374 60.1115 5.12414 60.1115 5.48948V8.00002C60.1115 8.36536 59.8268 8.65575 59.4687 8.65575H56.0618V17.3302C56.0618 17.6956 55.7772 17.986 55.419 17.986H52.003C51.6448 17.986 51.3602 17.6956 51.3602 17.3302V8.65575Z" fill="#2E3138"/>
<path d="M91.1865 13.1616C90.4335 14.2576 88.8173 14.9696 87.2379 14.9696C84.5656 14.9696 82.7198 12.8525 82.7198 9.84545V5.46137C82.7198 5.11477 82.9953 4.83374 83.3351 4.83374H86.7879C87.1277 4.83374 87.4031 5.11477 87.4031 5.46137V9.13351C87.4031 10.3607 88.0551 11.1476 89.1295 11.1476C89.8825 11.1476 90.6264 10.7635 90.9753 10.2295V5.46137C90.9753 5.11477 91.2508 4.83374 91.5906 4.83374H95.0433C95.3831 4.83374 95.6586 5.11477 95.6586 5.46137V17.349C95.6586 17.6956 95.3831 17.9766 95.0433 17.9766H91.7834C91.4436 17.9766 91.1681 17.6956 91.1681 17.349V13.1616H91.1865Z" fill="#2E3138"/>
<path d="M99.3227 4.83371H102.904C103.207 4.83371 103.446 5.08664 103.446 5.3864V9.6487H103.694L106.761 5.23652C106.935 4.98359 107.229 4.82434 107.532 4.82434H111.747C112.069 4.82434 112.252 5.19905 112.05 5.46134L107.743 11.1382L112.17 17.3396C112.353 17.6019 112.17 17.9672 111.857 17.9672H107.587C107.266 17.9672 106.963 17.7986 106.788 17.5269L103.694 12.6932H103.446V17.4239C103.446 17.733 103.198 17.9766 102.904 17.9766H99.3227C99.0196 17.9766 98.7809 17.7236 98.7809 17.4239V5.3864C98.7717 5.07727 99.0196 4.83371 99.3227 4.83371Z" fill="#2E3138"/>
<path d="M113.804 14.5105C113.804 11.9625 115.824 10.6135 120.049 10.0234L122.298 9.74233V9.15217C122.298 8.18729 121.674 7.52219 120.6 7.52219C119.736 7.52219 119.094 7.99057 118.901 8.80556C118.836 9.09596 118.579 9.30205 118.285 9.30205H115.016C114.621 9.30205 114.328 8.94608 114.392 8.54327C114.787 6.05146 117.147 4.48706 120.655 4.48706C124.475 4.48706 127 6.36996 127 9.33015V17.3302C127 17.6861 126.715 17.9765 126.366 17.9765H122.941C122.592 17.9765 122.308 17.6861 122.308 17.3302V16.4215H122.06C121.334 17.6487 119.782 18.2857 118.111 18.2857C115.558 18.2857 113.804 16.9086 113.804 14.5105ZM122.298 13.0585V12.2716L120.223 12.5807C118.846 12.7587 118.304 13.2927 118.304 14.0608C118.304 14.8758 118.901 15.4098 119.929 15.4098C121.325 15.4098 122.298 14.4168 122.298 13.0585Z" fill="#2E3138"/>
<path d="M74.7766 24C74.6389 24 74.4919 23.9906 74.3542 23.9625L63.3438 22.1358C61.9021 21.8923 60.9196 20.5058 61.1583 19.0351L63.8305 2.26696C64.0693 0.79623 65.4284 -0.206112 66.8701 0.0374479L77.8713 1.86415C78.5692 1.97656 79.1844 2.37 79.5976 2.9508C80.0109 3.53159 80.1762 4.25291 80.066 4.96485L77.3937 21.733C77.1825 23.0538 76.053 24 74.7766 24ZM66.4385 1.87351C66.0436 1.87351 65.7039 2.16391 65.6396 2.56672L62.9674 19.3349C62.8939 19.7845 63.1969 20.2154 63.6377 20.281L74.648 22.1077C74.8593 22.1452 75.0796 22.089 75.2541 21.9578C75.4286 21.8267 75.548 21.6393 75.5847 21.4145L78.2569 4.64635C78.2937 4.43089 78.2386 4.20607 78.11 4.02808C77.9814 3.8501 77.7978 3.72832 77.5774 3.69084L66.5671 1.88288C66.5303 1.87351 66.4844 1.87351 66.4385 1.87351Z" fill="#2E3138"/>
<path d="M73.6563 7.80318L66.512 6.61349C66.2181 6.56665 66.0161 6.28562 66.0712 5.98585L66.4844 3.41911C66.5303 3.11934 66.8058 2.91325 67.0997 2.96946L74.244 4.15915C74.5379 4.20599 74.7399 4.48702 74.6848 4.78679L74.2715 7.35353C74.2256 7.6533 73.941 7.85002 73.6563 7.80318Z" fill="#FFE666"/>
</g>
<defs>
<clipPath id="clip0">
<rect width="127" height="24" fill="white"/>
</clipPath>
</defs>
</svg>
